<svg xmlns="http://www.w3.org/2000/svg" xmlns:xlink="http://www.w3.org/1999/xlink" width="500" zoomAndPan="magnify" viewBox="0 0 375 374.999991" height="500" preserveAspectRatio="xMidYMid meet" version="1.0"><defs><g/><clipPath id="79d6369f97"><path d="M 144 136 L 153.695312 136 L 153.695312 146 L 144 146 Z M 144 136 " clip-rule="nonzero"/></clipPath><clipPath id="08923a9d92"><path d="M 138 129.097656 L 143 129.097656 L 143 134 L 138 134 Z M 138 129.097656 " clip-rule="nonzero"/></clipPath><clipPath id="2e391ff35a"><path d="M 66.796875 229 L 76 229 L 76 239 L 66.796875 239 Z M 66.796875 229 " clip-rule="nonzero"/></clipPath></defs><path fill="#001a49" d="M 128.097656 152.082031 L 124.710938 152.082031 L 124.710938 149.019531 C 123.511719 148.398438 122.144531 148.039062 120.703125 148.039062 C 115.863281 148.039062 111.910156 152.003906 111.910156 156.832031 L 111.910156 218.160156 C 111.910156 222.988281 115.863281 226.949219 120.703125 226.949219 C 125.332031 226.949219 129.152344 223.332031 129.472656 218.78125 C 130.515625 219.132812 131.628906 219.335938 132.792969 219.335938 C 138.386719 219.335938 142.917969 214.804688 142.917969 209.210938 C 142.917969 208.1875 142.773438 207.210938 142.496094 206.277344 C 147.925781 204.292969 151.800781 199.0625 151.800781 192.945312 C 151.800781 189.414062 150.511719 186.183594 148.390625 183.695312 C 149.457031 182.03125 150.066406 180.042969 150.066406 177.914062 C 150.066406 173.050781 146.847656 168.945312 142.429688 167.585938 L 134.09375 167.585938 L 134.09375 156.90625 L 137.453125 156.90625 C 133.945312 151.882812 129.550781 152.136719 128.097656 152.082031 Z M 127.496094 172.296875 L 121.691406 172.296875 L 121.691406 178.113281 L 127.496094 178.113281 Z M 138.796875 171.289062 L 132.992188 171.289062 L 132.992188 177.097656 L 138.796875 177.097656 Z M 129.816406 165.359375 L 126.121094 165.359375 L 126.121094 169.046875 L 129.816406 169.046875 Z M 124.242188 160.40625 L 120.546875 160.40625 L 120.546875 164.09375 L 124.242188 164.09375 Z M 131.769531 153.96875 L 128.085938 153.96875 L 128.085938 157.664062 L 131.769531 157.664062 Z M 131.769531 153.96875 " fill-opacity="1" fill-rule="evenodd"/><g clip-path="url(#79d6369f97)"><path fill="#001a49" d="M 153.796875 136.972656 L 144.847656 136.972656 L 144.847656 145.921875 L 153.796875 145.921875 Z M 153.796875 136.972656 " fill-opacity="1" fill-rule="evenodd"/></g><path fill="#001a49" d="M 141.320312 144.121094 L 135.667969 144.121094 L 135.667969 149.773438 L 141.320312 149.773438 Z M 141.320312 144.121094 " fill-opacity="1" fill-rule="evenodd"/><path fill="#001a49" d="M 151.996094 157.933594 L 146.335938 157.933594 L 146.335938 163.59375 L 151.996094 163.59375 Z M 151.996094 157.933594 " fill-opacity="1" fill-rule="evenodd"/><g clip-path="url(#08923a9d92)"><path fill="#001a49" d="M 142.894531 129.144531 L 138.886719 129.144531 L 138.886719 133.152344 L 142.894531 133.152344 Z M 142.894531 129.144531 " fill-opacity="1" fill-rule="evenodd"/></g><path fill="#001a49" d="M 134.691406 134.308594 L 130.050781 134.308594 L 130.050781 138.9375 L 134.691406 138.9375 Z M 134.691406 134.308594 " fill-opacity="1" fill-rule="evenodd"/><path fill="#001a49" d="M 148.714844 149.75 L 144.703125 149.75 L 144.703125 153.746094 L 148.714844 153.746094 Z M 148.714844 149.75 " fill-opacity="1" fill-rule="evenodd"/><path fill="#001a49" d="M 129.949219 145.433594 L 126.910156 145.433594 L 126.910156 148.472656 L 129.949219 148.472656 Z M 129.949219 145.433594 " fill-opacity="1" fill-rule="evenodd"/><path fill="#001a49" d="M 143.238281 158.609375 L 135.625 158.609375 L 135.625 166.226562 L 143.238281 166.226562 Z M 143.238281 158.609375 " fill-opacity="1" fill-rule="evenodd"/><path fill="#e9327c" d="M 92.382812 222.910156 L 95.769531 222.910156 L 95.769531 225.976562 C 96.96875 226.597656 98.332031 226.953125 99.777344 226.953125 C 104.605469 226.953125 108.566406 222.988281 108.566406 218.160156 L 108.566406 156.835938 C 108.566406 152.003906 104.605469 148.042969 99.777344 148.042969 C 95.148438 148.042969 91.328125 151.671875 91.003906 156.214844 C 89.960938 155.859375 88.839844 155.65625 87.6875 155.65625 C 82.089844 155.65625 77.550781 160.199219 77.550781 165.78125 C 77.550781 166.804688 77.707031 167.78125 77.984375 168.714844 C 72.554688 170.699219 68.667969 175.929688 68.667969 182.050781 C 68.667969 185.582031 69.957031 188.808594 72.085938 191.296875 C 71.019531 192.960938 70.410156 194.949219 70.410156 197.078125 C 70.410156 201.941406 73.621094 206.050781 78.046875 207.40625 L 86.386719 207.40625 L 86.386719 218.085938 L 83.023438 218.085938 C 86.53125 223.109375 90.917969 222.855469 92.382812 222.910156 Z M 92.980469 202.695312 L 98.789062 202.695312 L 98.789062 196.878906 L 92.980469 196.878906 Z M 81.667969 203.703125 L 87.488281 203.703125 L 87.488281 197.898438 L 81.671875 197.898438 L 81.671875 203.703125 Z M 90.660156 209.632812 L 94.347656 209.632812 L 94.347656 205.945312 L 90.660156 205.945312 Z M 96.234375 214.585938 L 99.933594 214.585938 L 99.933594 210.898438 L 96.234375 210.898438 Z M 88.695312 221.023438 L 92.394531 221.023438 L 92.394531 217.328125 L 88.695312 217.328125 Z M 88.695312 221.023438 " fill-opacity="1" fill-rule="evenodd"/><g clip-path="url(#2e391ff35a)"><path fill="#e9327c" d="M 75.628906 229.074219 L 66.671875 229.074219 L 66.671875 238.019531 L 75.628906 238.019531 Z M 75.628906 229.074219 " fill-opacity="1" fill-rule="evenodd"/></g><path fill="#e9327c" d="M 84.808594 225.21875 L 79.160156 225.21875 L 79.160156 230.871094 L 84.808594 230.871094 Z M 84.808594 225.21875 " fill-opacity="1" fill-rule="evenodd"/><path fill="#e9327c" d="M 74.132812 211.410156 L 68.480469 211.410156 L 68.480469 217.058594 L 74.132812 217.058594 Z M 74.132812 211.410156 " fill-opacity="1" fill-rule="evenodd"/><path fill="#e9327c" d="M 81.582031 241.839844 L 77.574219 241.839844 L 77.574219 245.847656 L 81.582031 245.847656 Z M 81.582031 241.839844 " fill-opacity="1" fill-rule="evenodd"/><path fill="#e9327c" d="M 90.429688 236.054688 L 85.789062 236.054688 L 85.789062 240.683594 L 90.429688 240.683594 Z M 90.429688 236.054688 " fill-opacity="1" fill-rule="evenodd"/><path fill="#e9327c" d="M 75.765625 221.246094 L 71.765625 221.246094 L 71.765625 225.242188 L 75.765625 225.242188 Z M 75.765625 221.246094 " fill-opacity="1" fill-rule="evenodd"/><path fill="#e9327c" d="M 93.570312 226.519531 L 90.527344 226.519531 L 90.527344 229.558594 L 93.570312 229.558594 Z M 93.570312 226.519531 " fill-opacity="1" fill-rule="evenodd"/><path fill="#e9327c" d="M 84.84375 208.765625 L 77.238281 208.765625 L 77.238281 216.382812 L 84.84375 216.382812 Z M 84.84375 208.765625 " fill-opacity="1" fill-rule="evenodd"/><g fill="#000000" fill-opacity="1"><g transform="translate(166.13948, 189.368952)"><g><path d="M 18.625 -24.9375 L 18.625 -9.71875 L 7.6875 -24.9375 L 2.84375 -24.9375 L 2.84375 0 L 8.125 0 L 8.125 -15.5625 L 19.421875 0 L 23.9375 0 L 23.9375 -24.9375 Z M 18.625 -24.9375 "/></g></g></g><g fill="#000000" fill-opacity="1"><g transform="translate(195.850747, 189.368952)"><g><path d="M 8.234375 -4.984375 L 8.234375 -10.125 L 16.890625 -10.125 L 16.890625 -15 L 8.234375 -15 L 8.234375 -19.953125 L 17.8125 -19.953125 L 17.8125 -24.9375 L 2.84375 -24.9375 L 2.84375 0 L 18.203125 0 L 18.203125 -4.984375 Z M 8.234375 -4.984375 "/></g></g></g><g fill="#000000" fill-opacity="1"><g transform="translate(218.686403, 189.368952)"><g><path d="M 22.15625 0 L 14.359375 -12.859375 L 21.515625 -24.9375 L 15.609375 -24.9375 L 11.109375 -17.25 L 6.65625 -24.9375 L 0.609375 -24.9375 L 7.875 -13.078125 L 0.109375 0 L 6.203125 0 L 11.1875 -8.546875 L 16.109375 0 Z M 22.15625 0 "/></g></g></g><g fill="#000000" fill-opacity="1"><g transform="translate(243.873308, 189.368952)"><g><path d="M 20.015625 -24.9375 L 0.75 -24.9375 L 0.75 -19.921875 L 7.6875 -19.921875 L 7.6875 0 L 13.078125 0 L 13.078125 -19.921875 L 20.015625 -19.921875 Z M 20.015625 -24.9375 "/></g></g></g><g fill="#e9327c" fill-opacity="1"><g transform="translate(267.600411, 189.368952)"><g><path d="M 13.78125 -13 L 13.78125 -8.875 L 21.265625 -8.875 C 20.34375 -6.3125 17.53125 -4.59375 14.328125 -4.59375 C 9.828125 -4.59375 6.875 -7.796875 6.875 -12.4375 C 6.875 -17.09375 9.90625 -20.3125 14.328125 -20.3125 C 17.453125 -20.3125 20.09375 -18.625 21.15625 -15.953125 L 26.71875 -15.953125 C 25.546875 -21.546875 20.40625 -25.46875 14.21875 -25.46875 C 6.84375 -25.46875 1.390625 -19.875 1.390625 -12.4375 C 1.390625 -4.953125 6.984375 0.5625 14.328125 0.5625 C 21.796875 0.5625 27.046875 -5.203125 27.046875 -13 Z M 13.78125 -13 "/></g></g></g><g fill="#e9327c" fill-opacity="1"><g transform="translate(298.9148, 189.368952)"><g><path d="M 8.234375 -4.984375 L 8.234375 -10.125 L 16.890625 -10.125 L 16.890625 -15 L 8.234375 -15 L 8.234375 -19.953125 L 17.8125 -19.953125 L 17.8125 -24.9375 L 2.84375 -24.9375 L 2.84375 0 L 18.203125 0 L 18.203125 -4.984375 Z M 8.234375 -4.984375 "/></g></g></g><g fill="#e9327c" fill-opacity="1"><g transform="translate(321.750457, 189.368952)"><g><path d="M 18.625 -24.9375 L 18.625 -9.71875 L 7.6875 -24.9375 L 2.84375 -24.9375 L 2.84375 0 L 8.125 0 L 8.125 -15.5625 L 19.421875 0 L 23.9375 0 L 23.9375 -24.9375 Z M 18.625 -24.9375 "/></g></g></g><g fill="#e9327c" fill-opacity="1"><g transform="translate(168.238851, 216.651519)"><g><path d="M 8.921875 0.359375 C 12.78125 0.359375 15.8125 -2.234375 16.515625 -6.078125 L 13.109375 -6.078125 C 12.5625 -4.125 10.984375 -2.875 8.921875 -2.875 C 6.28125 -2.875 4.296875 -4.96875 4.296875 -7.765625 C 4.296875 -10.578125 6.28125 -12.6875 8.921875 -12.6875 C 10.890625 -12.6875 12.453125 -11.53125 13.09375 -9.703125 L 16.453125 -9.703125 C 15.734375 -13.40625 12.71875 -15.921875 8.921875 -15.921875 C 4.34375 -15.921875 0.875 -12.40625 0.875 -7.765625 C 0.875 -3.15625 4.34375 0.359375 8.921875 0.359375 Z M 8.921875 0.359375 "/></g></g></g><g fill="#e9327c" fill-opacity="1"><g transform="translate(185.828686, 216.651519)"><g><path d="M 11.671875 -15.59375 L 7.84375 -4.5625 L 3.890625 -15.59375 L 0.171875 -15.59375 L 6.25 0 L 9.4375 0 L 15.34375 -15.59375 Z M 11.671875 -15.59375 "/></g></g></g><g fill="#d1212e" fill-opacity="1"><g transform="translate(201.88338, 216.651519)"><g/></g></g><g fill="#000000" fill-opacity="1"><g transform="translate(207.637286, 216.651519)"><g><path d="M 11.15625 -8.21875 C 12.25 -8.96875 12.921875 -10.21875 12.921875 -11.5625 C 12.921875 -13.84375 10.90625 -15.5625 8.21875 -15.5625 L 1.78125 -15.5625 L 1.78125 0.015625 L 8.390625 0.015625 C 11.109375 0.015625 13.3125 -1.984375 13.3125 -4.46875 C 13.3125 -6.140625 12.515625 -7.484375 11.15625 -8.21875 Z M 9.640625 -11.046875 C 9.640625 -10.0625 8.953125 -9.375 7.90625 -9.375 L 5.078125 -9.375 L 5.078125 -12.6875 L 7.90625 -12.6875 C 8.953125 -12.6875 9.640625 -12.03125 9.640625 -11.046875 Z M 8.078125 -3.078125 L 5.078125 -3.078125 L 5.078125 -6.5625 L 8.078125 -6.5625 C 9.203125 -6.5625 9.9375 -5.828125 9.9375 -4.828125 C 9.9375 -3.8125 9.203125 -3.078125 8.078125 -3.078125 Z M 8.078125 -3.078125 "/></g></g></g><g fill="#000000" fill-opacity="1"><g transform="translate(222.35486, 216.651519)"><g><path d="M 8.0625 0.359375 C 11.734375 0.359375 14.5 -2.203125 14.5 -5.859375 L 14.5 -15.59375 L 11.109375 -15.59375 L 11.109375 -6.015625 C 11.109375 -4.078125 9.84375 -2.828125 8.0625 -2.828125 C 6.25 -2.828125 4.984375 -4.078125 4.984375 -6.015625 L 4.984375 -15.59375 L 1.609375 -15.59375 L 1.609375 -5.859375 C 1.609375 -2.203125 4.359375 0.359375 8.0625 0.359375 Z M 8.0625 0.359375 "/></g></g></g><g fill="#000000" fill-opacity="1"><g transform="translate(238.898214, 216.651519)"><g><path d="M 1.78125 0 L 5.140625 0 L 5.140625 -15.59375 L 1.78125 -15.59375 Z M 1.78125 0 "/></g></g></g><g fill="#000000" fill-opacity="1"><g transform="translate(246.268154, 216.651519)"><g><path d="M 5.140625 -3.125 L 5.140625 -15.59375 L 1.78125 -15.59375 L 1.78125 0 L 11.140625 0 L 11.140625 -3.125 Z M 5.140625 -3.125 "/></g></g></g><g fill="#000000" fill-opacity="1"><g transform="translate(258.313867, 216.651519)"><g><path d="M 7.65625 -15.59375 L 1.78125 -15.59375 L 1.78125 0 L 7.65625 0 C 12.25 0 15.5625 -3.265625 15.5625 -7.796875 C 15.5625 -12.3125 12.25 -15.59375 7.65625 -15.59375 Z M 7.59375 -3.125 L 5.140625 -3.125 L 5.140625 -12.453125 L 7.59375 -12.453125 C 10.265625 -12.453125 12.109375 -10.546875 12.109375 -7.796875 C 12.109375 -5.078125 10.265625 -3.125 7.59375 -3.125 Z M 7.59375 -3.125 "/></g></g></g><g fill="#000000" fill-opacity="1"><g transform="translate(275.235735, 216.651519)"><g><path d="M 5.140625 -3.125 L 5.140625 -6.328125 L 10.546875 -6.328125 L 10.546875 -9.375 L 5.140625 -9.375 L 5.140625 -12.46875 L 11.140625 -12.46875 L 11.140625 -15.59375 L 1.78125 -15.59375 L 1.78125 0 L 11.375 0 L 11.375 -3.125 Z M 5.140625 -3.125 "/></g></g></g><g fill="#000000" fill-opacity="1"><g transform="translate(288.105273, 216.651519)"><g><path d="M 10.359375 0 L 14.109375 0 L 10.671875 -5.875 C 12.40625 -6.71875 13.515625 -8.375 13.515625 -10.421875 C 13.515625 -13.421875 11.171875 -15.59375 8.0625 -15.59375 L 1.78125 -15.59375 L 1.78125 0 L 5.140625 0 L 5.140625 -5.296875 L 7.296875 -5.296875 Z M 5.140625 -12.46875 L 7.84375 -12.46875 C 9.265625 -12.46875 10.09375 -11.59375 10.09375 -10.4375 C 10.09375 -9.265625 9.265625 -8.421875 7.84375 -8.421875 L 5.140625 -8.421875 Z M 5.140625 -12.46875 "/></g></g></g></svg>