<svg xmlns="http://www.w3.org/2000/svg" version="1.1" xmlns:xlink="http://www.w3.org/1999/xlink" xmlns:svgjs="http://svgjs.dev/svgjs" width="2000" height="888" viewBox="0 0 2000 888"><g transform="matrix(1,0,0,1,-1.2121212121212466,-0.26535404991352607)"><svg viewBox="0 0 396 176" data-background-color="#ffffff" preserveAspectRatio="xMidYMid meet" height="888" width="2000" xmlns="http://www.w3.org/2000/svg" xmlns:xlink="http://www.w3.org/1999/xlink"><g id="tight-bounds" transform="matrix(1,0,0,1,0.2400000000000091,0.052592694577455745)"><svg viewBox="0 0 395.52 175.8948146108451" height="175.8948146108451" width="395.52"><g><svg viewBox="0 0 699.0729283910773 310.89022840516066" height="175.8948146108451" width="395.52"><g><rect width="9.555959410925238" height="226.0815336810321" x="268.9813684279917" y="42.40434736206427" fill="#4b91f1" opacity="1" stroke-width="0" stroke="transparent" fill-opacity="1" class="rect-yte-0" data-fill-palette-color="secondary" rx="1%" id="yte-0" data-palette-color="#4b91f1"></rect></g><g transform="matrix(1,0,0,1,303.5529283910773,42.96673923689269)"><svg viewBox="0 0 395.52000000000004 224.95674993137527" height="224.95674993137527" width="395.52000000000004"><g id="textblocktransform"><svg viewBox="0 0 395.52000000000004 224.95674993137527" height="224.95674993137527" width="395.52000000000004" id="textblock"><g><svg viewBox="0 0 395.52000000000004 224.95674993137527" height="224.95674993137527" width="395.52000000000004"><g transform="matrix(1,0,0,1,0,0)"><svg width="395.52000000000004" viewBox="3.8999999999999995 -36.8 182.15000000000003 89.1" height="224.95674993137527" data-palette-color="url(#577c2649-facb-44b6-8697-8864d4254b5b)"><svg></svg><svg></svg><g class="wordmark-text-0" data-fill-palette-color="primary" id="text-0"></g></svg></g></svg></g></svg></g></svg></g><g><svg viewBox="0 0 243.96576787583138 310.89022840516066" height="310.89022840516066" width="243.96576787583138"><g><svg xmlns="http://www.w3.org/2000/svg" xmlns:xlink="http://www.w3.org/1999/xlink" version="1.1" x="8" y="0" viewBox="69.7 2 372.5 508" enable-background="new 0 0 512 512" xml:space="preserve" height="310.89022840516066" width="227.96576787583138" class="icon-icon-0" data-fill-palette-color="accent" id="icon-0"></svg></g></svg></g></svg></g><defs></defs><mask id="b9d32d52-0349-42dd-983d-a1738c810000"><g id="SvgjsG5484"><svg viewBox="0 0 395.52 175.8948146108451" height="175.8948146108451" width="395.52"><g><svg viewBox="0 0 699.0729283910773 310.89022840516066" height="175.8948146108451" width="395.52"><g><rect width="9.555959410925238" height="226.0815336810321" x="268.9813684279917" y="42.40434736206427" fill="black" opacity="1" stroke-width="0" stroke="transparent" fill-opacity="1" class="rect-yte-0" rx="1%" id="SvgjsRect5483" data-palette-color="#4b91f1"></rect></g><g transform="matrix(1,0,0,1,303.5529283910773,42.96673923689269)"><svg viewBox="0 0 395.52000000000004 224.95674993137527" height="224.95674993137527" width="395.52000000000004"><g id="SvgjsG5482"><svg viewBox="0 0 395.52000000000004 224.95674993137527" height="224.95674993137527" width="395.52000000000004" id="SvgjsSvg5481"><g><svg viewBox="0 0 395.52000000000004 224.95674993137527" height="224.95674993137527" width="395.52000000000004"><g transform="matrix(1,0,0,1,0,0)"><svg width="395.52000000000004" viewBox="3.8999999999999995 -36.8 182.15000000000003 89.1" height="224.95674993137527" data-palette-color="url(#577c2649-facb-44b6-8697-8864d4254b5b)"><svg></svg><svg></svg><g class="wordmark-text-0" data-fill-palette-color="primary" id="SvgjsG5480"><path d="M30.85 0l-21.5-23.8 0.15 4v19.8h-5.6v-36.8h0.7l21.6 24.1-0.2-4.2v-19.85h5.6v36.75zM49.9 0.5c-2.733 0-5.017-0.543-6.85-1.63-1.833-1.08-3.183-2.53-4.05-4.35-0.867-1.813-1.3-3.803-1.3-5.97v0c0-2.433 0.51-4.567 1.53-6.4 1.013-1.833 2.42-3.243 4.22-4.23 1.8-0.98 3.833-1.47 6.1-1.47v0c3.533 0 6.157 0.973 7.87 2.92 1.72 1.953 2.58 4.697 2.58 8.23v0c0 0.9-0.05 1.833-0.15 2.8v0h-16.5c0.367 2.033 1.09 3.5 2.17 4.4 1.087 0.9 2.597 1.35 4.53 1.35v0c1.6 0 2.917-0.133 3.95-0.4 1.033-0.267 1.983-0.633 2.85-1.1v0l1.65 3.85c-0.833 0.533-1.967 1-3.4 1.4-1.433 0.4-3.167 0.6-5.2 0.6zM43.35-13.35h11.4c0.033-2.067-0.417-3.527-1.35-4.38-0.933-0.847-2.267-1.27-4-1.27v0c-3.5 0-5.517 1.883-6.05 5.65zM62.65 0l8.6-11.9-8.05-11.05h6.4l4.7 7.1 4.45-7.1h6.55l-8.1 10.75 8.8 12.2h-6.2l-5.45-8.1-5.2 8.1zM92.15 0v-18.55h-4.05v-4.4h4.05v-9.35l5.45-1.2v10.55h5.3v4.4h-5.3v18.55zM118.45 12c-1.7 0-3.377-0.233-5.03-0.7-1.647-0.467-2.82-0.9-3.52-1.3v0l1.2-5c2.2 1.433 4.6 2.15 7.2 2.15v0c2 0 3.683-0.483 5.05-1.45 1.367-0.967 2.067-2.85 2.1-5.65v0-4.1c-0.7 1.3-1.833 2.383-3.4 3.25-1.567 0.867-3.3 1.3-5.2 1.3v0c-2 0-3.833-0.493-5.5-1.48-1.667-0.98-2.983-2.387-3.95-4.22-0.967-1.833-1.45-3.967-1.45-6.4v0c0-2.333 0.46-4.407 1.38-6.22 0.913-1.82 2.22-3.23 3.92-4.23 1.7-1 3.683-1.5 5.95-1.5v0c1.333 0 2.583 0.233 3.75 0.7 1.167 0.467 2.157 1.04 2.97 1.72 0.82 0.687 1.363 1.363 1.63 2.03v0l0.1-3.85h5.1v22.8c0 3.9-1 6.9-3 9-2 2.1-5.1 3.15-9.3 3.15zM118.35-4.05c1.9 0 3.5-0.66 4.8-1.98 1.3-1.313 1.95-3.037 1.95-5.17v0-0.35c0-1.433-0.3-2.717-0.9-3.85-0.6-1.133-1.417-2.017-2.45-2.65-1.033-0.633-2.167-0.95-3.4-0.95v0c-2.133 0-3.783 0.69-4.95 2.07-1.167 1.387-1.75 3.18-1.75 5.38v0c0 2.233 0.577 4.04 1.73 5.42 1.147 1.387 2.803 2.08 4.97 2.08zM148.5 0.5c-2.733 0-5.017-0.543-6.85-1.63-1.833-1.08-3.183-2.53-4.05-4.35-0.867-1.813-1.3-3.803-1.3-5.97v0c0-2.433 0.507-4.567 1.52-6.4 1.02-1.833 2.43-3.243 4.23-4.23 1.8-0.98 3.833-1.47 6.1-1.47v0c3.533 0 6.16 0.973 7.88 2.92 1.713 1.953 2.57 4.697 2.57 8.23v0c0 0.9-0.05 1.833-0.15 2.8v0h-16.5c0.367 2.033 1.093 3.5 2.18 4.4 1.08 0.9 2.587 1.35 4.52 1.35v0c1.6 0 2.917-0.133 3.95-0.4 1.033-0.267 1.983-0.633 2.85-1.1v0l1.65 3.85c-0.833 0.533-1.967 1-3.4 1.4-1.433 0.4-3.167 0.6-5.2 0.6zM141.95-13.35h11.4c0.033-2.067-0.417-3.527-1.35-4.38-0.933-0.847-2.267-1.27-4-1.27v0c-3.5 0-5.517 1.883-6.05 5.65zM164.25 0v-22.95h5.3l0.05 4.2c0.633-1.4 1.633-2.55 3-3.45 1.367-0.9 2.967-1.35 4.8-1.35v0c2.367 0 4.183 0.49 5.45 1.47 1.267 0.987 2.117 2.363 2.55 4.13 0.433 1.767 0.65 4.067 0.65 6.9v0 11.05h-5.4v-10.9c0-2.9-0.283-4.993-0.85-6.28-0.567-1.28-1.733-1.92-3.5-1.92v0c-1 0-2.017 0.307-3.05 0.92-1.033 0.62-1.893 1.513-2.58 2.68-0.68 1.167-1.02 2.533-1.02 4.1v0 11.4z" fill="white" fillRule="nonzero" stroke="none" stroke-width="1" stroke-linecap="butt" stroke-linejoin="miter" stroke-miterlimit="10" stroke-dasharray="" stroke-dashoffset="0" font-family="none" font-weight="none" font-size="none" text-anchor="none" style="mix-blend-mode: normal" opacity="1"></path><path transform="translate(0,51.8)" d="M28.7 0h-6.45l-7.4-13.9c-1.533 0.067-2.9 0.1-4.1 0.1v0h-1.4v13.8h-5.45v-36.75h8.35c4.233 0 7.717 0.873 10.45 2.62 2.733 1.753 4.1 4.597 4.1 8.53v0c0 2.467-0.573 4.59-1.72 6.37-1.153 1.787-2.863 3.163-5.13 4.13v0zM9.35-18.35h3.55c3.267 0 5.51-0.71 6.73-2.13 1.213-1.413 1.82-3.103 1.82-5.07v0c0-4.367-2.917-6.55-8.75-6.55v0h-3.35zM44.9 0.5c-2.733 0-5.017-0.543-6.85-1.63-1.833-1.08-3.183-2.53-4.05-4.35-0.867-1.813-1.3-3.803-1.3-5.97v0c0-2.433 0.51-4.567 1.53-6.4 1.013-1.833 2.42-3.243 4.22-4.23 1.8-0.98 3.833-1.47 6.1-1.47v0c3.533 0 6.157 0.973 7.87 2.92 1.72 1.953 2.58 4.697 2.58 8.23v0c0 0.9-0.05 1.833-0.15 2.8v0h-16.5c0.367 2.033 1.09 3.5 2.17 4.4 1.087 0.9 2.597 1.35 4.53 1.35v0c1.6 0 2.917-0.133 3.95-0.4 1.033-0.267 1.983-0.633 2.85-1.1v0l1.65 3.85c-0.833 0.533-1.967 1-3.4 1.4-1.433 0.4-3.167 0.6-5.2 0.6zM38.35-13.35h11.4c0.033-2.067-0.417-3.527-1.35-4.38-0.933-0.847-2.267-1.27-4-1.27v0c-3.5 0-5.517 1.883-6.05 5.65zM68.55 0.5c-1.6 0-3.257-0.21-4.97-0.63-1.72-0.413-2.947-0.903-3.68-1.47v0l1.8-4.25c2 1.4 4.283 2.1 6.85 2.1v0c2.567 0 3.85-0.75 3.85-2.25v0c0-0.667-0.267-1.183-0.8-1.55-0.533-0.367-1.483-0.8-2.85-1.3v0l-1.9-0.7c-2-0.8-3.583-1.76-4.75-2.88-1.167-1.113-1.75-2.587-1.75-4.42v0c0-2.1 0.827-3.743 2.48-4.93 1.647-1.18 3.853-1.77 6.62-1.77v0c1.367 0 2.707 0.15 4.02 0.45 1.32 0.3 2.33 0.683 3.03 1.15v0l-1.95 4.3c-0.433-0.433-1.127-0.81-2.08-1.13-0.947-0.313-2.003-0.47-3.17-0.47v0c-2.367 0-3.55 0.717-3.55 2.15v0c0 0.8 0.317 1.407 0.95 1.82 0.633 0.42 1.667 0.88 3.1 1.38v0c0.133 0.033 0.65 0.217 1.55 0.55v0c2.133 0.833 3.717 1.783 4.75 2.85 1.033 1.067 1.55 2.433 1.55 4.1v0c0 2.267-0.857 3.983-2.57 5.15-1.72 1.167-3.897 1.75-6.53 1.75zM91.2 0.5c-3.167 0-5.343-0.933-6.53-2.8-1.18-1.867-1.77-4.467-1.77-7.8v0-12.85h5.4v11.5c0 1.9 0.11 3.373 0.33 4.42 0.213 1.053 0.647 1.83 1.3 2.33 0.647 0.5 1.62 0.75 2.92 0.75v0c0.933 0 1.833-0.267 2.7-0.8 0.867-0.533 1.577-1.26 2.13-2.18 0.547-0.913 0.82-1.92 0.82-3.02v0-13h5.35v22.95h-4.4l-0.6-3.35c-0.833 1.3-1.873 2.267-3.12 2.9-1.253 0.633-2.763 0.95-4.53 0.95zM111.05 0v-22.95h5.4v4.15c0.733-1.567 1.807-2.75 3.22-3.55 1.42-0.8 3.047-1.2 4.88-1.2v0c4.1 0.033 6.617 1.45 7.55 4.25v0c0.733-1.3 1.833-2.333 3.3-3.1 1.467-0.767 3.017-1.15 4.65-1.15v0c2.4 0 4.217 0.457 5.45 1.37 1.233 0.92 2.057 2.22 2.47 3.9 0.42 1.687 0.63 3.947 0.63 6.78v0 11.5h-5.45v-11.55c0-2.7-0.277-4.633-0.83-5.8-0.547-1.167-1.603-1.75-3.17-1.75v0c-2.1 0-3.69 0.707-4.77 2.12-1.087 1.42-1.63 3.28-1.63 5.58v0 11.4h-5.4v-12.35c0-1.767-0.067-3.083-0.2-3.95-0.133-0.867-0.5-1.55-1.1-2.05-0.6-0.5-1.567-0.75-2.9-0.75v0c-1.167 0-2.257 0.35-3.27 1.05-1.02 0.7-1.84 1.64-2.46 2.82-0.613 1.187-0.92 2.463-0.92 3.83v0 11.4zM166.35 0.5c-2.733 0-5.017-0.543-6.85-1.63-1.833-1.08-3.183-2.53-4.05-4.35-0.867-1.813-1.3-3.803-1.3-5.97v0c0-2.433 0.507-4.567 1.52-6.4 1.02-1.833 2.43-3.243 4.23-4.23 1.8-0.98 3.833-1.47 6.1-1.47v0c3.533 0 6.16 0.973 7.88 2.92 1.713 1.953 2.57 4.697 2.57 8.23v0c0 0.9-0.05 1.833-0.15 2.8v0h-16.5c0.367 2.033 1.09 3.5 2.17 4.4 1.087 0.9 2.597 1.35 4.53 1.35v0c1.6 0 2.917-0.133 3.95-0.4 1.033-0.267 1.983-0.633 2.85-1.1v0l1.65 3.85c-0.833 0.533-1.967 1-3.4 1.4-1.433 0.4-3.167 0.6-5.2 0.6zM159.8-13.35h11.4c0.033-2.067-0.417-3.527-1.35-4.38-0.933-0.847-2.267-1.27-4-1.27v0c-3.5 0-5.517 1.883-6.05 5.65z" fill="white" fillRule="nonzero" stroke="none" stroke-width="1" stroke-linecap="butt" stroke-linejoin="miter" stroke-miterlimit="10" stroke-dasharray="" stroke-dashoffset="0" font-family="none" font-weight="none" font-size="none" text-anchor="none" style="mix-blend-mode: normal" opacity="1"></path></g></svg></g></svg></g></svg></g></svg></g><g><svg viewBox="0 0 243.96576787583138 310.89022840516066" height="310.89022840516066" width="243.96576787583138"><g><svg xmlns="http://www.w3.org/2000/svg" xmlns:xlink="http://www.w3.org/1999/xlink" version="1.1" x="8" y="0" viewBox="69.7 2 372.5 508" enable-background="new 0 0 512 512" xml:space="preserve" height="310.89022840516066" width="227.96576787583138" class="icon-icon-0" data-fill-palette-color="accent" id="SvgjsSvg5479"><g fill="black"><path d="M335.7 2H69.7V510H442.2V108.6zM340.7 30.9L413.4 103.6H340.7zM86.7 493.1V18.9H323.8V120.5H425.4V493H86.7z" fill="black"></path><rect x="112.1" y="205.2" width="287.9" height="16.9" fill="black"></rect><rect x="112.1" y="272.9" width="287.9" height="16.9" fill="black"></rect><rect x="112.1" y="340.7" width="287.9" height="16.9" fill="black"></rect><rect x="112.1" y="408.4" width="186.3" height="16.9" fill="black"></rect><path d="M171.3 112.1C194.6 112.1 213.6 131.1 213.6 154.4H230.5C230.5 130.7 216.5 110.2 196.3 100.8 201.7 94.8 205.1 86.9 205.1 78.2 205.1 59.5 189.9 44.3 171.2 44.3S137.3 59.5 137.3 78.2C137.3 86.9 140.7 94.8 146.1 100.8 125.9 110.3 111.9 130.7 111.9 154.4H129C129 131.1 148 112.1 171.3 112.1M154.4 78.2C154.4 68.9 162 61.3 171.3 61.3S188.2 68.9 188.2 78.2 180.6 95.1 171.3 95.1 154.4 87.5 154.4 78.2" fill="black"></path><rect x="315.3" y="408.4" width="16.9" height="16.9" fill="black"></rect><rect x="349.1" y="408.4" width="16.9" height="16.9" fill="black"></rect><rect x="383" y="408.4" width="16.9" height="16.9" fill="black"></rect></g></svg></g></svg></g></svg></g><defs><mask></mask></defs></svg><rect width="395.52" height="175.8948146108451" fill="black" stroke="none" visibility="hidden"></rect></g></mask><linearGradient x1="0" x2="1" y1="0.548" y2="0.55" id="577c2649-facb-44b6-8697-8864d4254b5b"><stop stop-color="#ff6cab" offset="0"></stop><stop stop-color="#7366ff" offset="1"></stop></linearGradient><rect width="395.52" height="175.8948146108451" fill="url(#577c2649-facb-44b6-8697-8864d4254b5b)" mask="url(#b9d32d52-0349-42dd-983d-a1738c810000)" data-fill-palette-color="primary"></rect><mask id="d92ca9c4-6c2c-4d22-9890-0aee2f856e8d"><g id="SvgjsG5496"><svg viewBox="0 0 395.52 175.8948146108451" height="175.8948146108451" width="395.52"><g><svg viewBox="0 0 699.0729283910773 310.89022840516066" height="175.8948146108451" width="395.52"><g><rect width="9.555959410925238" height="226.0815336810321" x="268.9813684279917" y="42.40434736206427" fill="black" opacity="1" stroke-width="0" stroke="transparent" fill-opacity="1" class="rect-yte-0" rx="1%" id="SvgjsRect5495" data-palette-color="#4b91f1"></rect></g><g transform="matrix(1,0,0,1,303.5529283910773,42.96673923689269)"><svg viewBox="0 0 395.52000000000004 224.95674993137527" height="224.95674993137527" width="395.52000000000004"><g id="SvgjsG5494"><svg viewBox="0 0 395.52000000000004 224.95674993137527" height="224.95674993137527" width="395.52000000000004" id="SvgjsSvg5493"><g><svg viewBox="0 0 395.52000000000004 224.95674993137527" height="224.95674993137527" width="395.52000000000004"><g transform="matrix(1,0,0,1,0,0)"><svg width="395.52000000000004" viewBox="3.8999999999999995 -36.8 182.15000000000003 89.1" height="224.95674993137527" data-palette-color="url(#577c2649-facb-44b6-8697-8864d4254b5b)"><svg></svg><svg></svg><g class="wordmark-text-0" data-fill-palette-color="primary" id="SvgjsG5492"></g></svg></g></svg></g></svg></g></svg></g><g><svg viewBox="0 0 243.96576787583138 310.89022840516066" height="310.89022840516066" width="243.96576787583138"><g><svg xmlns="http://www.w3.org/2000/svg" xmlns:xlink="http://www.w3.org/1999/xlink" version="1.1" x="8" y="0" viewBox="69.7 2 372.5 508" enable-background="new 0 0 512 512" xml:space="preserve" height="310.89022840516066" width="227.96576787583138" class="icon-icon-0" data-fill-palette-color="accent" id="SvgjsSvg5491"><g fill="white"><path d="M335.7 2H69.7V510H442.2V108.6zM340.7 30.9L413.4 103.6H340.7zM86.7 493.1V18.9H323.8V120.5H425.4V493H86.7z" fill="white"></path><rect x="112.1" y="205.2" width="287.9" height="16.9" fill="white"></rect><rect x="112.1" y="272.9" width="287.9" height="16.9" fill="white"></rect><rect x="112.1" y="340.7" width="287.9" height="16.9" fill="white"></rect><rect x="112.1" y="408.4" width="186.3" height="16.9" fill="white"></rect><path d="M171.3 112.1C194.6 112.1 213.6 131.1 213.6 154.4H230.5C230.5 130.7 216.5 110.2 196.3 100.8 201.7 94.8 205.1 86.9 205.1 78.2 205.1 59.5 189.9 44.3 171.2 44.3S137.3 59.5 137.3 78.2C137.3 86.9 140.7 94.8 146.1 100.8 125.9 110.3 111.9 130.7 111.9 154.4H129C129 131.1 148 112.1 171.3 112.1M154.4 78.2C154.4 68.9 162 61.3 171.3 61.3S188.2 68.9 188.2 78.2 180.6 95.1 171.3 95.1 154.4 87.5 154.4 78.2" fill="white"></path><rect x="315.3" y="408.4" width="16.9" height="16.9" fill="white"></rect><rect x="349.1" y="408.4" width="16.9" height="16.9" fill="white"></rect><rect x="383" y="408.4" width="16.9" height="16.9" fill="white"></rect></g></svg></g></svg></g></svg></g><defs><mask></mask></defs><mask><g id="SvgjsG5490"><svg viewBox="0 0 395.52 175.8948146108451" height="175.8948146108451" width="395.52"><g><svg viewBox="0 0 699.0729283910773 310.89022840516066" height="175.8948146108451" width="395.52"><g><rect width="9.555959410925238" height="226.0815336810321" x="268.9813684279917" y="42.40434736206427" fill="black" opacity="1" stroke-width="0" stroke="transparent" fill-opacity="1" class="rect-yte-0" rx="1%" id="SvgjsRect5489" data-palette-color="#4b91f1"></rect></g><g transform="matrix(1,0,0,1,303.5529283910773,42.96673923689269)"><svg viewBox="0 0 395.52000000000004 224.95674993137527" height="224.95674993137527" width="395.52000000000004"><g id="SvgjsG5488"><svg viewBox="0 0 395.52000000000004 224.95674993137527" height="224.95674993137527" width="395.52000000000004" id="SvgjsSvg5487"><g><svg viewBox="0 0 395.52000000000004 224.95674993137527" height="224.95674993137527" width="395.52000000000004"><g transform="matrix(1,0,0,1,0,0)"><svg width="395.52000000000004" viewBox="3.8999999999999995 -36.8 182.15000000000003 89.1" height="224.95674993137527" data-palette-color="url(#577c2649-facb-44b6-8697-8864d4254b5b)"><svg></svg><svg></svg><g class="wordmark-text-0" data-fill-palette-color="primary" id="SvgjsG5486"><path d="M30.85 0l-21.5-23.8 0.15 4v19.8h-5.6v-36.8h0.7l21.6 24.1-0.2-4.2v-19.85h5.6v36.75zM49.9 0.5c-2.733 0-5.017-0.543-6.85-1.63-1.833-1.08-3.183-2.53-4.05-4.35-0.867-1.813-1.3-3.803-1.3-5.97v0c0-2.433 0.51-4.567 1.53-6.4 1.013-1.833 2.42-3.243 4.22-4.23 1.8-0.98 3.833-1.47 6.1-1.47v0c3.533 0 6.157 0.973 7.87 2.92 1.72 1.953 2.58 4.697 2.58 8.23v0c0 0.9-0.05 1.833-0.15 2.8v0h-16.5c0.367 2.033 1.09 3.5 2.17 4.4 1.087 0.9 2.597 1.35 4.53 1.35v0c1.6 0 2.917-0.133 3.95-0.4 1.033-0.267 1.983-0.633 2.85-1.1v0l1.65 3.85c-0.833 0.533-1.967 1-3.4 1.4-1.433 0.4-3.167 0.6-5.2 0.6zM43.35-13.35h11.4c0.033-2.067-0.417-3.527-1.35-4.38-0.933-0.847-2.267-1.27-4-1.27v0c-3.5 0-5.517 1.883-6.05 5.65zM62.65 0l8.6-11.9-8.05-11.05h6.4l4.7 7.1 4.45-7.1h6.55l-8.1 10.75 8.8 12.2h-6.2l-5.45-8.1-5.2 8.1zM92.15 0v-18.55h-4.05v-4.4h4.05v-9.35l5.45-1.2v10.55h5.3v4.4h-5.3v18.55zM118.45 12c-1.7 0-3.377-0.233-5.03-0.7-1.647-0.467-2.82-0.9-3.52-1.3v0l1.2-5c2.2 1.433 4.6 2.15 7.2 2.15v0c2 0 3.683-0.483 5.05-1.45 1.367-0.967 2.067-2.85 2.1-5.65v0-4.1c-0.7 1.3-1.833 2.383-3.4 3.25-1.567 0.867-3.3 1.3-5.2 1.3v0c-2 0-3.833-0.493-5.5-1.48-1.667-0.98-2.983-2.387-3.95-4.22-0.967-1.833-1.45-3.967-1.45-6.4v0c0-2.333 0.46-4.407 1.38-6.22 0.913-1.82 2.22-3.23 3.92-4.23 1.7-1 3.683-1.5 5.95-1.5v0c1.333 0 2.583 0.233 3.75 0.7 1.167 0.467 2.157 1.04 2.97 1.72 0.82 0.687 1.363 1.363 1.63 2.03v0l0.1-3.85h5.1v22.8c0 3.9-1 6.9-3 9-2 2.1-5.1 3.15-9.3 3.15zM118.35-4.05c1.9 0 3.5-0.66 4.8-1.98 1.3-1.313 1.95-3.037 1.95-5.17v0-0.35c0-1.433-0.3-2.717-0.9-3.85-0.6-1.133-1.417-2.017-2.45-2.65-1.033-0.633-2.167-0.95-3.4-0.95v0c-2.133 0-3.783 0.69-4.95 2.07-1.167 1.387-1.75 3.18-1.75 5.38v0c0 2.233 0.577 4.04 1.73 5.42 1.147 1.387 2.803 2.08 4.97 2.08zM148.5 0.5c-2.733 0-5.017-0.543-6.85-1.63-1.833-1.08-3.183-2.53-4.05-4.35-0.867-1.813-1.3-3.803-1.3-5.97v0c0-2.433 0.507-4.567 1.52-6.4 1.02-1.833 2.43-3.243 4.23-4.23 1.8-0.98 3.833-1.47 6.1-1.47v0c3.533 0 6.16 0.973 7.88 2.92 1.713 1.953 2.57 4.697 2.57 8.23v0c0 0.9-0.05 1.833-0.15 2.8v0h-16.5c0.367 2.033 1.093 3.5 2.18 4.4 1.08 0.9 2.587 1.35 4.52 1.35v0c1.6 0 2.917-0.133 3.95-0.4 1.033-0.267 1.983-0.633 2.85-1.1v0l1.65 3.85c-0.833 0.533-1.967 1-3.4 1.4-1.433 0.4-3.167 0.6-5.2 0.6zM141.95-13.35h11.4c0.033-2.067-0.417-3.527-1.35-4.38-0.933-0.847-2.267-1.27-4-1.27v0c-3.5 0-5.517 1.883-6.05 5.65zM164.25 0v-22.95h5.3l0.05 4.2c0.633-1.4 1.633-2.55 3-3.45 1.367-0.9 2.967-1.35 4.8-1.35v0c2.367 0 4.183 0.49 5.45 1.47 1.267 0.987 2.117 2.363 2.55 4.13 0.433 1.767 0.65 4.067 0.65 6.9v0 11.05h-5.4v-10.9c0-2.9-0.283-4.993-0.85-6.28-0.567-1.28-1.733-1.92-3.5-1.92v0c-1 0-2.017 0.307-3.05 0.92-1.033 0.62-1.893 1.513-2.58 2.68-0.68 1.167-1.02 2.533-1.02 4.1v0 11.4z" fill="black" fillRule="nonzero" stroke="none" stroke-width="1" stroke-linecap="butt" stroke-linejoin="miter" stroke-miterlimit="10" stroke-dasharray="" stroke-dashoffset="0" font-family="none" font-weight="none" font-size="none" text-anchor="none" style="mix-blend-mode: normal" opacity="1"></path><path transform="translate(0,51.8)" d="M28.7 0h-6.45l-7.4-13.9c-1.533 0.067-2.9 0.1-4.1 0.1v0h-1.4v13.8h-5.45v-36.75h8.35c4.233 0 7.717 0.873 10.45 2.62 2.733 1.753 4.1 4.597 4.1 8.53v0c0 2.467-0.573 4.59-1.72 6.37-1.153 1.787-2.863 3.163-5.13 4.13v0zM9.35-18.35h3.55c3.267 0 5.51-0.71 6.73-2.13 1.213-1.413 1.82-3.103 1.82-5.07v0c0-4.367-2.917-6.55-8.75-6.55v0h-3.35zM44.9 0.5c-2.733 0-5.017-0.543-6.85-1.63-1.833-1.08-3.183-2.53-4.05-4.35-0.867-1.813-1.3-3.803-1.3-5.97v0c0-2.433 0.51-4.567 1.53-6.4 1.013-1.833 2.42-3.243 4.22-4.23 1.8-0.98 3.833-1.47 6.1-1.47v0c3.533 0 6.157 0.973 7.87 2.92 1.72 1.953 2.58 4.697 2.58 8.23v0c0 0.9-0.05 1.833-0.15 2.8v0h-16.5c0.367 2.033 1.09 3.5 2.17 4.4 1.087 0.9 2.597 1.35 4.53 1.35v0c1.6 0 2.917-0.133 3.95-0.4 1.033-0.267 1.983-0.633 2.85-1.1v0l1.65 3.85c-0.833 0.533-1.967 1-3.4 1.4-1.433 0.4-3.167 0.6-5.2 0.6zM38.35-13.35h11.4c0.033-2.067-0.417-3.527-1.35-4.38-0.933-0.847-2.267-1.27-4-1.27v0c-3.5 0-5.517 1.883-6.05 5.65zM68.55 0.5c-1.6 0-3.257-0.21-4.97-0.63-1.72-0.413-2.947-0.903-3.68-1.47v0l1.8-4.25c2 1.4 4.283 2.1 6.85 2.1v0c2.567 0 3.85-0.75 3.85-2.25v0c0-0.667-0.267-1.183-0.8-1.55-0.533-0.367-1.483-0.8-2.85-1.3v0l-1.9-0.7c-2-0.8-3.583-1.76-4.75-2.88-1.167-1.113-1.75-2.587-1.75-4.42v0c0-2.1 0.827-3.743 2.48-4.93 1.647-1.18 3.853-1.77 6.62-1.77v0c1.367 0 2.707 0.15 4.02 0.45 1.32 0.3 2.33 0.683 3.03 1.15v0l-1.95 4.3c-0.433-0.433-1.127-0.81-2.08-1.13-0.947-0.313-2.003-0.47-3.17-0.47v0c-2.367 0-3.55 0.717-3.55 2.15v0c0 0.8 0.317 1.407 0.95 1.82 0.633 0.42 1.667 0.88 3.1 1.38v0c0.133 0.033 0.65 0.217 1.55 0.55v0c2.133 0.833 3.717 1.783 4.75 2.85 1.033 1.067 1.55 2.433 1.55 4.1v0c0 2.267-0.857 3.983-2.57 5.15-1.72 1.167-3.897 1.75-6.53 1.75zM91.2 0.5c-3.167 0-5.343-0.933-6.53-2.8-1.18-1.867-1.77-4.467-1.77-7.8v0-12.85h5.4v11.5c0 1.9 0.11 3.373 0.33 4.42 0.213 1.053 0.647 1.83 1.3 2.33 0.647 0.5 1.62 0.75 2.92 0.75v0c0.933 0 1.833-0.267 2.7-0.8 0.867-0.533 1.577-1.26 2.13-2.18 0.547-0.913 0.82-1.92 0.82-3.02v0-13h5.35v22.95h-4.4l-0.6-3.35c-0.833 1.3-1.873 2.267-3.12 2.9-1.253 0.633-2.763 0.95-4.53 0.95zM111.05 0v-22.95h5.4v4.15c0.733-1.567 1.807-2.75 3.22-3.55 1.42-0.8 3.047-1.2 4.88-1.2v0c4.1 0.033 6.617 1.45 7.55 4.25v0c0.733-1.3 1.833-2.333 3.3-3.1 1.467-0.767 3.017-1.15 4.65-1.15v0c2.4 0 4.217 0.457 5.45 1.37 1.233 0.92 2.057 2.22 2.47 3.9 0.42 1.687 0.63 3.947 0.63 6.78v0 11.5h-5.45v-11.55c0-2.7-0.277-4.633-0.83-5.8-0.547-1.167-1.603-1.75-3.17-1.75v0c-2.1 0-3.69 0.707-4.77 2.12-1.087 1.42-1.63 3.28-1.63 5.58v0 11.4h-5.4v-12.35c0-1.767-0.067-3.083-0.2-3.95-0.133-0.867-0.5-1.55-1.1-2.05-0.6-0.5-1.567-0.75-2.9-0.75v0c-1.167 0-2.257 0.35-3.27 1.05-1.02 0.7-1.84 1.64-2.46 2.82-0.613 1.187-0.92 2.463-0.92 3.83v0 11.4zM166.35 0.5c-2.733 0-5.017-0.543-6.85-1.63-1.833-1.08-3.183-2.53-4.05-4.35-0.867-1.813-1.3-3.803-1.3-5.97v0c0-2.433 0.507-4.567 1.52-6.4 1.02-1.833 2.43-3.243 4.23-4.23 1.8-0.98 3.833-1.47 6.1-1.47v0c3.533 0 6.16 0.973 7.88 2.92 1.713 1.953 2.57 4.697 2.57 8.23v0c0 0.9-0.05 1.833-0.15 2.8v0h-16.5c0.367 2.033 1.09 3.5 2.17 4.4 1.087 0.9 2.597 1.35 4.53 1.35v0c1.6 0 2.917-0.133 3.95-0.4 1.033-0.267 1.983-0.633 2.85-1.1v0l1.65 3.85c-0.833 0.533-1.967 1-3.4 1.4-1.433 0.4-3.167 0.6-5.2 0.6zM159.8-13.35h11.4c0.033-2.067-0.417-3.527-1.35-4.38-0.933-0.847-2.267-1.27-4-1.27v0c-3.5 0-5.517 1.883-6.05 5.65z" fill="black" fillRule="nonzero" stroke="none" stroke-width="1" stroke-linecap="butt" stroke-linejoin="miter" stroke-miterlimit="10" stroke-dasharray="" stroke-dashoffset="0" font-family="none" font-weight="none" font-size="none" text-anchor="none" style="mix-blend-mode: normal" opacity="1"></path></g></svg></g></svg></g></svg></g></svg></g><g><svg viewBox="0 0 243.96576787583138 310.89022840516066" height="310.89022840516066" width="243.96576787583138"><g><svg xmlns="http://www.w3.org/2000/svg" xmlns:xlink="http://www.w3.org/1999/xlink" version="1.1" x="8" y="0" viewBox="69.7 2 372.5 508" enable-background="new 0 0 512 512" xml:space="preserve" height="310.89022840516066" width="227.96576787583138" class="icon-icon-0" data-fill-palette-color="accent" id="SvgjsSvg5485"><g fill="black"><path d="M335.7 2H69.7V510H442.2V108.6zM340.7 30.9L413.4 103.6H340.7zM86.7 493.1V18.9H323.8V120.5H425.4V493H86.7z" fill="black"></path><rect x="112.1" y="205.2" width="287.9" height="16.9" fill="black"></rect><rect x="112.1" y="272.9" width="287.9" height="16.9" fill="black"></rect><rect x="112.1" y="340.7" width="287.9" height="16.9" fill="black"></rect><rect x="112.1" y="408.4" width="186.3" height="16.9" fill="black"></rect><path d="M171.3 112.1C194.6 112.1 213.6 131.1 213.6 154.4H230.5C230.5 130.7 216.5 110.2 196.3 100.8 201.7 94.8 205.1 86.9 205.1 78.2 205.1 59.5 189.9 44.3 171.2 44.3S137.3 59.5 137.3 78.2C137.3 86.9 140.7 94.8 146.1 100.8 125.9 110.3 111.9 130.7 111.9 154.4H129C129 131.1 148 112.1 171.3 112.1M154.4 78.2C154.4 68.9 162 61.3 171.3 61.3S188.2 68.9 188.2 78.2 180.6 95.1 171.3 95.1 154.4 87.5 154.4 78.2" fill="black"></path><rect x="315.3" y="408.4" width="16.9" height="16.9" fill="black"></rect><rect x="349.1" y="408.4" width="16.9" height="16.9" fill="black"></rect><rect x="383" y="408.4" width="16.9" height="16.9" fill="black"></rect></g></svg></g></svg></g></svg></g><defs><mask></mask></defs></svg><rect width="395.52" height="175.8948146108451" fill="black" stroke="none" visibility="hidden"></rect></g></mask></svg><rect width="395.52" height="175.8948146108451" fill="black" stroke="none" visibility="hidden"></rect></g></mask><linearGradient x1="0" x2="1" y1="0.548" y2="0.55" id="4ead12be-75e1-4406-963d-3826e6f20fb1"><stop stop-color="#ff6cab" offset="0"></stop><stop stop-color="#7366ff" offset="1"></stop></linearGradient><rect width="395.52" height="175.8948146108451" fill="url(#4ead12be-75e1-4406-963d-3826e6f20fb1)" mask="url(#d92ca9c4-6c2c-4d22-9890-0aee2f856e8d)" data-fill-palette-color="accent"></rect></svg><rect width="395.52" height="175.8948146108451" fill="none" stroke="none" visibility="hidden"></rect></g></svg></g></svg>